<svg width="60" height="60" viewBox="0 0 60 60" fill="none" xmlns="http://www.w3.org/2000/svg">
<path fill-rule="evenodd" clip-rule="evenodd" d="M37.2002 13.2H22.8002C17.4983 13.2 13.2002 17.498 13.2002 22.8V37.2C13.2002 42.5018 17.4983 46.8 22.8002 46.8H37.2002C42.502 46.8 46.8002 42.5018 46.8002 37.2V22.8C46.8002 17.498 42.502 13.2 37.2002 13.2Z" stroke="#111111" stroke-width="3.6" stroke-linecap="round" stroke-linejoin="round"/>
<path fill-rule="evenodd" clip-rule="evenodd" d="M29.9998 37.2C26.0232 37.2 22.7998 33.9766 22.7998 30C22.7998 26.0235 26.0232 22.8 29.9998 22.8C33.9764 22.8 37.1998 26.0235 37.1998 30C37.1998 31.9095 36.4412 33.7409 35.0909 35.0912C33.7407 36.4414 31.9092 37.2 29.9998 37.2Z" stroke="#111111" stroke-width="3.6" stroke-linecap="round" stroke-linejoin="round"/>
<path d="M39.6002 18C38.2747 18 37.2002 19.0746 37.2002 20.4C37.2002 21.7255 38.2747 22.8 39.6002 22.8C40.9257 22.8 42.0002 21.7255 42.0002 20.4C42.0002 19.0746 40.9257 18 39.6002 18Z" fill="#111111"/>
<path d="M39.6004 19.2C38.9376 19.2 38.4004 19.7372 38.4004 20.4C38.4004 21.0627 38.9376 21.6 39.6004 21.6C40.2631 21.6 40.8004 21.0627 40.8004 20.4C40.8004 19.7372 40.2631 19.2 39.6004 19.2Z" stroke="#111111" stroke-width="2.4" stroke-linecap="round"/>
</svg>
